<svg width="26" height="30" viewBox="0 0 26 30" fill="none" xmlns="http://www.w3.org/2000/svg">
<g id="Group 11">
<path id="Vector" d="M1 7.20654H3.66667H25" stroke="#303030" style="stroke:#303030;stroke:color(display-p3 0.1882 0.1882 0.1882);stroke-opacity:1;" stroke-width="2" stroke-linecap="round" stroke-linejoin="round"/>
<path id="Vector_2" d="M22.3337 7.20638V25.873C22.3337 26.5803 22.0527 27.2586 21.5526 27.7587C21.0525 28.2588 20.3742 28.5397 19.667 28.5397H6.33366C5.62641 28.5397 4.94814 28.2588 4.44804 27.7587C3.94794 27.2586 3.66699 26.5803 3.66699 25.873V7.20638M7.66699 7.20638V4.53971C7.66699 3.83247 7.94794 3.15419 8.44804 2.6541C8.94814 2.154 9.62641 1.87305 10.3337 1.87305H15.667C16.3742 1.87305 17.0525 2.154 17.5526 2.6541C18.0527 3.15419 18.3337 3.83247 18.3337 4.53971V7.20638" stroke="#303030" style="stroke:#303030;stroke:color(display-p3 0.1882 0.1882 0.1882);stroke-opacity:1;" stroke-width="2" stroke-linecap="round" stroke-linejoin="round"/>
<path id="Vector_3" d="M10.333 13.873V21.873" stroke="#303030" style="stroke:#303030;stroke:color(display-p3 0.1882 0.1882 0.1882);stroke-opacity:1;" stroke-width="2" stroke-linecap="round" stroke-linejoin="round"/>
<path id="Vector_4" d="M15.667 13.873V21.873" stroke="#303030" style="stroke:#303030;stroke:color(display-p3 0.1882 0.1882 0.1882);stroke-opacity:1;" stroke-width="2" stroke-linecap="round" stroke-linejoin="round"/>
</g>
</svg>
