<svg width="16" height="16" viewBox="0 0 16 16" fill="none" xmlns="http://www.w3.org/2000/svg">
<path d="M1.79291 2.88149C1.82287 2.33411 2.19218 1.90685 2.7362 1.84105C3.10719 1.79625 3.61313 1.76013 4.28034 1.76013C4.94756 1.76013 5.4535 1.79625 5.82449 1.84105C6.36879 1.90685 6.73782 2.33411 6.76778 2.88149C6.78625 3.22028 6.80025 3.67638 6.80025 4.28004C6.80025 4.8837 6.78625 5.3398 6.76778 5.67859C6.73782 6.22597 6.36879 6.65323 5.82449 6.71903C5.4535 6.76383 4.94756 6.79995 4.28034 6.79995C3.61313 6.79995 3.10719 6.76383 2.7362 6.71903C2.19218 6.65323 1.82287 6.22597 1.79291 5.67859C1.76952 5.21278 1.75869 4.74643 1.76044 4.28004C1.76044 3.67638 1.77444 3.22028 1.79291 2.88149Z" stroke="#303030" style="stroke:#303030;stroke:color(display-p3 0.1882 0.1882 0.1882);stroke-opacity:1;" stroke-width="1.5" stroke-linecap="round" stroke-linejoin="round"/>
<path d="M9.23286 2.88149C9.26282 2.33411 9.63212 1.90685 10.1761 1.84105C10.5471 1.79625 11.0531 1.76013 11.7203 1.76013C12.3875 1.76013 12.8934 1.79625 13.2644 1.84105C13.8087 1.90685 14.1778 2.33411 14.2077 2.88149C14.2262 3.22028 14.2402 3.67638 14.2402 4.28004C14.2402 4.8837 14.2262 5.3398 14.2077 5.67859C14.1778 6.22597 13.8087 6.65323 13.2644 6.71903C12.8934 6.76383 12.3875 6.79995 11.7203 6.79995C11.0531 6.79995 10.5471 6.76383 10.1761 6.71903C9.63212 6.65323 9.26282 6.22597 9.23286 5.67859C9.20945 5.21278 9.19862 4.74643 9.20038 4.28004C9.20038 3.67638 9.21438 3.22028 9.23286 2.88149Z" stroke="#303030" style="stroke:#303030;stroke:color(display-p3 0.1882 0.1882 0.1882);stroke-opacity:1;" stroke-width="1.5" stroke-linecap="round" stroke-linejoin="round"/>
<path d="M1.79291 10.3213C1.82287 9.77393 2.19218 9.34667 2.7362 9.28087C3.10719 9.23607 3.61313 9.19995 4.28034 9.19995C4.94756 9.19995 5.4535 9.23607 5.82449 9.28087C6.36879 9.34667 6.73782 9.77393 6.76778 10.3213C6.78625 10.6601 6.80025 11.1162 6.80025 11.7199C6.80025 12.3235 6.78625 12.7796 6.76778 13.1184C6.73782 13.6658 6.36879 14.0931 5.82449 14.1589C5.4535 14.2036 4.94756 14.2398 4.28034 14.2398C3.61313 14.2398 3.10719 14.2036 2.7362 14.1589C2.19218 14.0931 1.82287 13.6658 1.79291 13.1184C1.76952 12.6526 1.75869 12.1863 1.76044 11.7199C1.76044 11.1162 1.77444 10.6601 1.79291 10.3213Z" stroke="#303030" style="stroke:#303030;stroke:color(display-p3 0.1882 0.1882 0.1882);stroke-opacity:1;" stroke-width="1.5" stroke-linecap="round" stroke-linejoin="round"/>
<path d="M9.23286 10.3213C9.26282 9.77393 9.63212 9.34667 10.1761 9.28087C10.5471 9.23607 11.0531 9.19995 11.7203 9.19995C12.3875 9.19995 12.8934 9.23607 13.2644 9.28087C13.8087 9.34667 14.1778 9.77393 14.2077 10.3213C14.2262 10.6601 14.2402 11.1162 14.2402 11.7199C14.2402 12.3235 14.2262 12.7796 14.2077 13.1184C14.1778 13.6658 13.8087 14.0931 13.2644 14.1588C12.8934 14.2036 12.3875 14.2398 11.7203 14.2398C11.0531 14.2398 10.5471 14.2036 10.1761 14.1588C9.63212 14.0931 9.26282 13.6658 9.23286 13.1184C9.20945 12.6526 9.19862 12.1862 9.20038 11.7199C9.20038 11.1162 9.21438 10.6601 9.23286 10.3213Z" stroke="#303030" style="stroke:#303030;stroke:color(display-p3 0.1882 0.1882 0.1882);stroke-opacity:1;" stroke-width="1.5" stroke-linecap="round" stroke-linejoin="round"/>
</svg>
