<svg width="16" height="17" viewBox="0 0 16 17" fill="none" xmlns="http://www.w3.org/2000/svg">
<g id="Clip path group">
<mask id="mask0_26816_1426" style="mask-type:luminance" maskUnits="userSpaceOnUse" x="0" y="0" width="17" height="17">
<g id="clip-path">
<path id="Vector" d="M16.0005 0.323242H0.000488281V16.3232H16.0005V0.323242Z" fill="white" style="fill:white;fill-opacity:1;"/>
</g>
</mask>
<g mask="url(#mask0_26816_1426)">
<g id="Group">
<path id="Vector_2" d="M10.0005 16.1831H6.00049C5.80158 16.1831 5.61081 16.1041 5.47016 15.9634C5.32951 15.8228 5.25049 15.632 5.25049 15.4331C5.25049 15.2342 5.32951 15.0434 5.47016 14.9028C5.61081 14.7621 5.80158 14.6831 6.00049 14.6831H10.0005C10.1994 14.6831 10.3902 14.7621 10.5308 14.9028C10.6715 15.0434 10.7505 15.2342 10.7505 15.4331C10.7505 15.632 10.6715 15.8228 10.5308 15.9634C10.3902 16.1041 10.1994 16.1831 10.0005 16.1831Z" fill="black" style="fill:black;fill-opacity:1;"/>
<path id="Vector_3" fill-rule="evenodd" clip-rule="evenodd" d="M1.55067 12.5732H14.4507C14.6171 12.5834 14.7822 12.5378 14.9199 12.4436C15.0575 12.3494 15.1598 12.2121 15.2107 12.0532C15.2658 11.9049 15.2658 11.7416 15.2107 11.5932C15.1667 11.4394 15.0714 11.3053 14.9407 11.2132C14.2656 10.5618 13.7873 9.7336 13.5607 8.82324C13.2207 8.21324 11.9307 8.72324 12.0907 9.28324C12.2913 9.90249 12.5491 10.5017 12.8607 11.0732H3.14067C4.11847 9.3361 4.60583 7.3659 4.55067 5.37324C4.54014 4.43747 4.89953 3.5354 5.55067 2.86324C6.22555 2.22262 7.12015 1.86478 8.05067 1.86324H8.11067C8.86067 1.86324 9.49067 1.45324 9.29067 0.793242C9.15067 0.423242 8.66067 0.323242 8.05067 0.323242C7.3875 0.323242 6.73081 0.453864 6.11812 0.707651C5.50542 0.961437 4.94872 1.33342 4.47978 1.80235C3.53272 2.74941 3.00067 4.0339 3.00067 5.37324C3.00067 9.84324 1.13067 11.2032 1.13067 11.2032C0.999964 11.2956 0.899154 11.4242 0.840671 11.5732C0.795948 11.7267 0.795948 11.8898 0.840671 12.0432C0.889278 12.1963 0.985139 12.3301 1.1145 12.4253C1.24385 12.5205 1.40005 12.5723 1.56067 12.5732H1.55067Z" fill="black" style="fill:black;fill-opacity:1;"/>
<path id="Vector_4" d="M11.5005 7.82324C13.1573 7.82324 14.5005 6.4801 14.5005 4.82324C14.5005 3.16639 13.1573 1.82324 11.5005 1.82324C9.84363 1.82324 8.50049 3.16639 8.50049 4.82324C8.50049 6.4801 9.84363 7.82324 11.5005 7.82324Z" fill="#E41E1B" style="fill:#E41E1B;fill:color(display-p3 0.8941 0.1176 0.1059);fill-opacity:1;"/>
</g>
</g>
</g>
</svg>
