<svg width="32" height="32" viewBox="0 0 32 32" xmlns="http://www.w3.org/2000/svg">
    <path d="M16 0a16 16 0 1 0 16 16A16.018 16.018 0 0 0 16 0zm0 25.846c-1.608 0-2.886-.681-3.058-2.121a.308.308 0 0 1 .308-.34h5.496a.308.308 0 0 1 .308.344c-.196 1.413-1.463 2.117-3.054 2.117zm7.539-3.692H8.46a1.12 1.12 0 0 1-.861-1.77c1.256-1.487 2.144-2.113 2.144-6.215 0-3.759 1.98-5.093 3.615-5.744a.872.872 0 0 0 .487-.514 2.2 2.2 0 0 1 4.307 0 .876.876 0 0 0 .488.514c1.631.65 3.615 1.986 3.615 5.744 0 4.102.887 4.728 2.143 6.216a1.123 1.123 0 0 1-.86 1.769z" fill="#888F9D" fill-rule="nonzero"/>
</svg>
