<svg width="16" height="16" viewBox="0 0 16 16" fill="none" xmlns="http://www.w3.org/2000/svg">
<path d="M14.0005 14.7524V13.2475C13.9968 12.4526 13.6816 11.6907 13.1227 11.1254C12.8439 10.8468 12.513 10.626 12.1489 10.4753C11.7848 10.3247 11.3945 10.2473 11.0005 10.2475H5.00049C4.60644 10.2473 4.2162 10.3247 3.85207 10.4753C3.48794 10.626 3.15705 10.8468 2.8783 11.1254C2.31935 11.6907 2.00421 12.4526 2.00049 13.2475V14.7524M8.00059 7.24756C8.59394 7.24756 9.17395 7.07161 9.6673 6.74197C10.1606 6.41232 10.5452 5.94379 10.7722 5.39561C10.9993 4.84743 11.0587 4.24423 10.9429 3.66229C10.8272 3.08035 10.5415 2.5458 10.1219 2.12624C9.70236 1.70668 9.16781 1.42096 8.58586 1.3052C8.00392 1.18945 7.40072 1.24886 6.85254 1.47592C6.30436 1.70298 5.83583 2.0875 5.50618 2.58085C5.17654 3.0742 5.00059 3.65422 5.00059 4.24756C5.00059 5.04321 5.31666 5.80627 5.87927 6.36888C6.44188 6.93149 7.20494 7.24756 8.00059 7.24756Z" stroke="#303030" style="stroke:#303030;stroke:color(display-p3 0.1882 0.1882 0.1882);stroke-opacity:1;" stroke-width="1.44695" stroke-linecap="round" stroke-linejoin="round"/>
</svg>
